<svg width="380" height="380" viewBox="0 0 380 380" fill="none" xmlns="http://www.w3.org/2000/svg">
<g clip-path="url(#clip0_807_88)">
<path d="M186.196 1.65036C188.616 0.596344 191.365 0.595408 193.784 1.64938L374.294 80.2812C377.758 81.7908 380 85.2115 380 88.9912V291.003C380 294.783 377.758 298.203 374.294 299.713L193.784 378.344C191.365 379.398 188.616 379.398 186.196 378.344L5.70605 299.713C2.24102 298.203 0.000121439 294.783 0 291.004V88.9902C0.000110721 85.2106 2.24101 81.7907 5.70605 80.2812L186.196 1.65036ZM164.664 85.6015C149.658 85.6015 135.105 86.5233 121.003 88.3672C106.901 90.2111 95.0586 91.9789 85.4766 93.6689L93.6123 132.853C97.5896 131.624 101.928 130.548 106.629 129.626L96.5957 287.978L142.155 291.435C142.517 289.13 142.879 286.441 143.24 283.368C157.523 287.978 171.986 290.282 186.63 290.282C208.687 290.282 227.49 286.211 243.038 278.066C258.767 269.922 270.699 258.166 278.835 242.8C287.151 227.28 291.31 208.609 291.31 186.789C291.31 171.27 288.779 157.824 283.717 146.453C278.835 135.082 272.055 125.477 263.377 117.641C254.88 109.804 245.117 103.58 234.089 98.9707C223.241 94.2071 211.851 90.8266 199.919 88.8291C187.987 86.6776 176.235 85.6015 164.664 85.6015ZM162.766 124.325C164.935 124.325 168.461 124.556 173.342 125.017C178.223 125.324 183.738 126.092 189.885 127.321C196.212 128.551 202.631 130.472 209.14 133.084C215.648 135.543 221.615 139 227.038 143.456C232.643 147.912 237.163 153.521 240.598 160.282C244.033 167.043 245.75 175.265 245.75 184.945C245.75 197.085 243.761 208.379 239.784 218.828C235.807 229.124 229.297 237.422 220.258 243.723C211.399 250.023 199.647 253.173 185.003 253.173C177.771 253.173 170.811 252.635 164.122 251.56C157.614 250.33 151.647 248.947 146.223 247.41C147.308 234.041 148.573 217.369 150.02 197.393C151.466 177.263 153.093 152.907 154.901 124.325H162.766Z" fill="#5733FF"/>
</g>
<defs>
<clipPath id="clip0_807_88">
<rect width="380" height="380" fill="white"/>
</clipPath>
</defs>
</svg>
